<svg width="1920" height="1080" viewBox="0 0 1920 1080" xmlns="http://www.w3.org/2000/svg"><path d="M1920,1080C1613.5,1097.1666666666667,307.3333333333333,1097.3333333333333,0,1080C-307.3333333333333,1062.6666666666667,49.66666666666667,999.8333333333334,76,976C102.33333333333333,952.1666666666666,131,930.6666666666666,158,937C185,943.3333333333334,211.33333333333334,995,238,1014C264.6666666666667,1033,291.5,1061.1666666666667,318,1051C344.5,1040.8333333333333,370.6666666666667,965.1666666666666,397,953C423.3333333333333,940.8333333333334,449.5,962.1666666666666,476,978C502.5,993.8333333333334,529.1666666666666,1052,556,1048C582.8333333333334,1044,610.1666666666666,966.3333333333334,637,954C663.8333333333334,941.6666666666666,690.3333333333334,958.1666666666666,717,974C743.6666666666666,989.8333333333334,770.1666666666666,1042.3333333333333,797,1049C823.8333333333334,1055.6666666666667,851.3333333333334,1022,878,1014C904.6666666666666,1006,930.5,1014,957,1001C983.5,988,1010.3333333333334,925.3333333333334,1037,936C1063.6666666666667,946.6666666666666,1090.5,1043.5,1117,1065C1143.5,1086.5,1169,1082.5,1196,1065C1223,1047.5,1252.1666666666667,962.3333333333334,1279,960C1305.8333333333333,957.6666666666666,1330.5,1035.6666666666667,1357,1051C1383.5,1066.3333333333333,1411.3333333333333,1052.8333333333333,1438,1052C1464.6666666666667,1051.1666666666667,1490.5,1043,1517,1046C1543.5,1049,1570.1666666666667,1069.3333333333333,1597,1070C1623.8333333333333,1070.6666666666667,1651.5,1058.8333333333333,1678,1050C1704.5,1041.1666666666667,1729.1666666666667,1029.1666666666667,1756,1017C1782.8333333333333,1004.8333333333334,1811.6666666666667,966.5,1839,977C1866.3333333333333,987.5,2226.5,1062.8333333333333,1920,1080C1613.5,1097.1666666666667,307.3333333333333,1097.3333333333333,0,1080" fill="#ffffff"/></svg>